{
  "accessors": [
    {
      "bufferView": 2,
      "componentType": 5126,
      "count": 20681,
      "max": [
        1.8435349464416504,
        2.054347038269043,
        0.9186968207359314
      ],
      "min": [
        -2.0395617485046387,
        -2.3373754024505615,
        -1.0017216205596924
      ],
      "type": "VEC3"
    },
    {
      "bufferView": 2,
      "byteOffset": 248172,
      "componentType": 5126,
      "count": 20681,
      "max": [
        0.9998342394828796,
        0.9997841119766235,
        0.9996616244316101
      ],
      "min": [
        -0.9997435212135315,
        -0.9999426007270813,
        -0.999977171421051
      ],
      "type": "VEC3"
    },
    {
      "bufferView": 3,
      "componentType": 5126,
      "count": 20681,
      "max": [
        0.9999925494194031,
        0.9999995827674866,
        0.9999996423721313,
        1.0
      ],
      "min": [
        -0.9999773502349854,
        -0.9999983310699463,
        -0.999988317489624,
        -1.0
      ],
      "type": "VEC4"
    },
    {
      "bufferView": 1,
      "componentType": 5126,
      "count": 20681,
      "max": [
        0.999500036239624,
        0.9937950968742371
      ],
      "min": [
        0.0005000000237487257,
        0.0005000000237487257
      ],
      "type": "VEC2"
    },
    {
      "bufferView": 0,
      "componentType": 5125,
      "count": 74952,
      "type": "SCALAR"
    }
  ],
  "asset": {
    "extras": {
      "author": "Lukáš Marek (https://sketchfab.com/lukas_marek)",
      "license": "CC-BY-NC-4.0 (http://creativecommons.org/licenses/by-nc/4.0/)",
      "source": "https://sketchfab.com/3d-models/octopus-6c77dfc55d34470991f77ba78fc2bdf4",
      "title": "Octopus"
    },
    "generator": "Sketchfab-12.67.0",
    "version": "2.0"
  },
  "bufferViews": [
    {
      "buffer": 0,
      "byteLength": 299808,
      "name": "floatBufferViews",
      "target": 34963
    },
    {
      "buffer": 0,
      "byteLength": 165448,
      "byteOffset": 299808,
      "byteStride": 8,
      "name": "floatBufferViews",
      "target": 34962
    },
    {
      "buffer": 0,
      "byteLength": 496344,
      "byteOffset": 465256,
      "byteStride": 12,
      "name": "floatBufferViews",
      "target": 34962
    },
    {
      "buffer": 0,
      "byteLength": 330896,
      "byteOffset": 961600,
      "byteStride": 16,
      "name": "floatBufferViews",
      "target": 34962
    }
  ],
  "buffers": [
    {
      "byteLength": 1292496,
      "uri": "scene.bin"
    }
  ],
  "images": [
    {
      "uri": "textures/default_normal.jpeg"
    }
  ],
  "materials": [
    {
      "name": "default",
      "normalTexture": {
        "index": 0
      },
      "pbrMetallicRoughness": {
        "baseColorFactor": [
          0.588,
          0.588,
          0.588,
          1.0
        ],
        "metallicFactor": 0.0,
        "roughnessFactor": 0.6
      }
    }
  ],
  "meshes": [
    {
      "name": "Group24148_default_0",
      "primitives": [
        {
          "attributes": {
            "NORMAL": 1,
            "POSITION": 0,
            "TANGENT": 2,
            "TEXCOORD_0": 3
          },
          "indices": 4,
          "material": 0,
          "mode": 4
        }
      ]
    }
  ],
  "nodes": [
    {
      "children": [
        1
      ],
      "matrix": [
        0.9994848370552063,
        -0.0320858471095562,
        -0.0007239190163090897,
        0.0,
        0.0006415892858058214,
        0.04252724349498771,
        -0.99909508228302,
        0.0,
        0.032087601721286774,
        0.9985799789428711,
        0.042525921016931756,
        0.0,
        0.0013722865842282772,
        0.002814373932778835,
        0.0018223895458504564,
        1.0
      ],
      "name": "Sketchfab_model"
    },
    {
      "children": [
        2
      ],
      "matrix": [
        1.0,
        0.0,
        0.0,
        0.0,
        0.0,
        0.0,
        1.0,
        0.0,
        0.0,
        -1.0,
        0.0,
        0.0,
        0.0,
        0.0,
        0.0,
        1.0
      ],
      "name": "ad7f48af41644c6484ef66010e52f790.fbx"
    },
    {
      "children": [
        3
      ],
      "name": "RootNode"
    },
    {
      "children": [
        4
      ],
      "matrix": [
        1.0,
        0.0,
        0.0,
        0.0,
        0.0,
        2.220446049250313e-16,
        -1.0,
        0.0,
        0.0,
        1.0,
        2.220446049250313e-16,
        0.0,
        0.0,
        0.0,
        0.0,
        1.0
      ],
      "name": "Group24148"
    },
    {
      "mesh": 0,
      "name": "Group24148_default_0"
    }
  ],
  "samplers": [
    {
      "magFilter": 9729,
      "minFilter": 9987,
      "wrapS": 10497,
      "wrapT": 10497
    }
  ],
  "scene": 0,
  "scenes": [
    {
      "name": "Sketchfab_Scene",
      "nodes": [
        0
      ]
    }
  ],
  "textures": [
    {
      "sampler": 0,
      "source": 0
    }
  ]
}
