{
  "accessors": [
    {
      "bufferView": 3,
      "componentType": 5126,
      "count": 3174,
      "max": [
        0.20694154500961304,
        0.24427887797355652,
        0.6650418043136597
      ],
      "min": [
        -0.20694154500961304,
        -0.14847396314144135,
        -0.7026376724243164
      ],
      "type": "VEC3"
    },
    {
      "bufferView": 3,
      "byteOffset": 38088,
      "componentType": 5126,
      "count": 3174,
      "max": [
        0.9999921321868896,
        0.9999986886978149,
        0.9998638033866882
      ],
      "min": [
        -0.9999920725822449,
        -0.9999974370002747,
        -0.9956812858581543
      ],
      "type": "VEC3"
    },
    {
      "bufferView": 4,
      "componentType": 5126,
      "count": 3174,
      "max": [
        0.9999783635139465,
        0.9957921504974365,
        0.9996575713157654,
        1.0
      ],
      "min": [
        -0.9999783635139465,
        -0.9999801516532898,
        -0.9990122318267822,
        -1.0
      ],
      "type": "VEC4"
    },
    {
      "bufferView": 2,
      "componentType": 5126,
      "count": 3174,
      "max": [
        0.9930981397628784,
        1.0064961910247803
      ],
      "min": [
        0.005708139389753342,
        0.019791871309280396
      ],
      "type": "VEC2"
    },
    {
      "bufferView": 1,
      "componentType": 5125,
      "count": 16848,
      "type": "SCALAR"
    },
    {
      "bufferView": 3,
      "byteOffset": 76176,
      "componentType": 5126,
      "count": 196,
      "max": [
        0.08391062170267105,
        0.05915452167391777,
        0.4981294870376587
      ],
      "min": [
        -0.08391062170267105,
        0.04894375056028366,
        0.48416778445243835
      ],
      "type": "VEC3"
    },
    {
      "bufferView": 3,
      "byteOffset": 78528,
      "componentType": 5126,
      "count": 196,
      "max": [
        0.9893370866775513,
        0.928834080696106,
        0.9912452101707458
      ],
      "min": [
        -0.989337146282196,
        -0.9581173658370972,
        -0.5843366384506226
      ],
      "type": "VEC3"
    },
    {
      "bufferView": 2,
      "byteOffset": 25392,
      "componentType": 5126,
      "count": 196,
      "max": [
        1.000000238418579,
        1.0
      ],
      "min": [
        0.0,
        0.5625
      ],
      "type": "VEC2"
    },
    {
      "bufferView": 1,
      "byteOffset": 67392,
      "componentType": 5125,
      "count": 672,
      "type": "SCALAR"
    },
    {
      "bufferView": 3,
      "byteOffset": 80880,
      "componentType": 5126,
      "count": 3640,
      "max": [
        0.03325314447283745,
        0.06794906407594681,
        0.6543123722076416
      ],
      "min": [
        -0.03325314447283745,
        -0.029834244400262833,
        0.5225351452827454
      ],
      "type": "VEC3"
    },
    {
      "bufferView": 3,
      "byteOffset": 124560,
      "componentType": 5126,
      "count": 3640,
      "max": [
        0.9997990727424622,
        0.9922287464141846,
        0.9994670748710632
      ],
      "min": [
        -0.9997990727424622,
        -0.9952389001846313,
        -0.996990978717804
      ],
      "type": "VEC3"
    },
    {
      "bufferView": 4,
      "byteOffset": 50784,
      "componentType": 5126,
      "count": 3640,
      "max": [
        1.0,
        0.9966074824333191,
        0.988980770111084,
        1.0
      ],
      "min": [
        -0.9996337890625,
        -0.9992020130157471,
        -0.9824777841567993,
        -1.0
      ],
      "type": "VEC4"
    },
    {
      "bufferView": 2,
      "byteOffset": 26960,
      "componentType": 5126,
      "count": 3640,
      "max": [
        1.000000238418579,
        1.000000238418579
      ],
      "min": [
        0.0,
        0.0
      ],
      "type": "VEC2"
    },
    {
      "bufferView": 1,
      "byteOffset": 70080,
      "componentType": 5125,
      "count": 13440,
      "type": "SCALAR"
    },
    {
      "bufferView": 5,
      "componentType": 5126,
      "count": 27,
      "max": [
        9.317025184631348,
        8.524282455444336,
        4.607938766479492,
        0.0,
        1.392700433731079,
        9.317007064819336,
        9.291131973266602,
        0.0,
        8.410429000854492,
        9.312749862670898,
        9.317007064819336,
        0.0,
        4.820237636566162,
        2.1775128841400146,
        2.4387850761413574,
        1.0
      ],
      "min": [
        1.0,
        -8.524285316467285,
        -4.607939720153809,
        0.0,
        -1.392700433731079,
        -5.788143157958984,
        -9.312748908996582,
        0.0,
        -8.410429000854492,
        -9.291131973266602,
        -5.831301212310791,
        0.0,
        -4.820237636566162,
        -4.950552940368652,
        -2.1552646160125732,
        1.0
      ],
      "type": "MAT4"
    },
    {
      "bufferView": 0,
      "componentType": 5123,
      "count": 3174,
      "type": "VEC4"
    },
    {
      "bufferView": 4,
      "byteOffset": 109024,
      "componentType": 5126,
      "count": 3174,
      "max": [
        1.0,
        0.49626871943473816,
        0.3305181860923767,
        0.17970655858516693
      ],
      "min": [
        0.3074187636375427,
        0.0,
        0.0,
        0.0
      ],
      "type": "VEC4"
    },
    {
      "bufferView": 0,
      "byteOffset": 25392,
      "componentType": 5123,
      "count": 196,
      "type": "VEC4"
    },
    {
      "bufferView": 4,
      "byteOffset": 159808,
      "componentType": 5126,
      "count": 196,
      "max": [
        1.0,
        0.01269361563026905,
        0.0,
        0.0
      ],
      "min": [
        0.9873064160346985,
        0.0,
        0.0,
        0.0
      ],
      "type": "VEC4"
    },
    {
      "bufferView": 0,
      "byteOffset": 26960,
      "componentType": 5123,
      "count": 3640,
      "type": "VEC4"
    },
    {
      "bufferView": 4,
      "byteOffset": 162944,
      "componentType": 5126,
      "count": 3640,
      "max": [
        1.0,
        0.0,
        0.0,
        0.0
      ],
      "min": [
        1.0,
        0.0,
        0.0,
        0.0
      ],
      "type": "VEC4"
    }
  ],
  "asset": {
    "extras": {
      "author": "Major (https://sketchfab.com/majorgalah)",
      "license": "CC-BY-4.0 (http://creativecommons.org/licenses/by/4.0/)",
      "source": "https://sketchfab.com/3d-models/livyatan-oceanic-testing-2-v1-051eccfc0b1548aa897177cc0ca58fc8",
      "title": "Livyatan (Oceanic testing 2 V1)"
    },
    "generator": "Sketchfab-16.14.0",
    "version": "2.0"
  },
  "bufferViews": [
    {
      "buffer": 0,
      "byteLength": 56080,
      "byteStride": 8,
      "name": "shortBufferViews",
      "target": 34962
    },
    {
      "buffer": 0,
      "byteLength": 123840,
      "byteOffset": 56080,
      "name": "floatBufferViews",
      "target": 34963
    },
    {
      "buffer": 0,
      "byteLength": 56080,
      "byteOffset": 179920,
      "byteStride": 8,
      "name": "floatBufferViews",
      "target": 34962
    },
    {
      "buffer": 0,
      "byteLength": 168240,
      "byteOffset": 236000,
      "byteStride": 12,
      "name": "floatBufferViews",
      "target": 34962
    },
    {
      "buffer": 0,
      "byteLength": 221184,
      "byteOffset": 404240,
      "byteStride": 16,
      "name": "floatBufferViews",
      "target": 34962
    },
    {
      "buffer": 0,
      "byteLength": 1728,
      "byteOffset": 625424,
      "name": "floatBufferViews"
    }
  ],
  "buffers": [
    {
      "byteLength": 627152,
      "uri": "scene.bin"
    }
  ],
  "images": [
    {
      "uri": "textures/material_0_normal.png"
    },
    {
      "uri": "textures/Material.004_baseColor.png"
    },
    {
      "uri": "textures/Material.004_metallicRoughness.png"
    },
    {
      "uri": "textures/Material.004_normal.png"
    }
  ],
  "materials": [
    {
      "doubleSided": true,
      "name": "material_0",
      "normalTexture": {
        "index": 0
      },
      "pbrMetallicRoughness": {
        "baseColorFactor": [
          1.0,
          0.9560380060379694,
          0.7665614189803083,
          1.0
        ]
      }
    },
    {
      "doubleSided": true,
      "name": "Material.004",
      "normalTexture": {
        "index": 3
      },
      "pbrMetallicRoughness": {
        "baseColorTexture": {
          "index": 1
        },
        "metallicRoughnessTexture": {
          "index": 2
        }
      }
    },
    {
      "doubleSided": true,
      "name": "Material.002",
      "pbrMetallicRoughness": {
        "baseColorFactor": [
          0.0,
          0.0,
          0.0,
          1.0
        ],
        "metallicFactor": 0.0,
        "roughnessFactor": 0.5
      }
    }
  ],
  "meshes": [
    {
      "name": "Object_0",
      "primitives": [
        {
          "attributes": {
            "JOINTS_0": 15,
            "NORMAL": 1,
            "POSITION": 0,
            "TANGENT": 2,
            "TEXCOORD_0": 3,
            "WEIGHTS_0": 16
          },
          "indices": 4,
          "material": 1,
          "mode": 4
        }
      ]
    },
    {
      "name": "Object_1",
      "primitives": [
        {
          "attributes": {
            "JOINTS_0": 17,
            "NORMAL": 6,
            "POSITION": 5,
            "TEXCOORD_0": 7,
            "WEIGHTS_0": 18
          },
          "indices": 8,
          "material": 2,
          "mode": 4
        }
      ]
    },
    {
      "name": "Object_2",
      "primitives": [
        {
          "attributes": {
            "JOINTS_0": 19,
            "NORMAL": 10,
            "POSITION": 9,
            "TANGENT": 11,
            "TEXCOORD_0": 12,
            "WEIGHTS_0": 20
          },
          "indices": 13,
          "material": 0,
          "mode": 4
        }
      ]
    }
  ],
  "nodes": [
    {
      "children": [
        1
      ],
      "matrix": [
        1.0,
        0.0,
        0.0,
        0.0,
        0.0,
        2.220446049250313e-16,
        -1.0,
        0.0,
        0.0,
        1.0,
        2.220446049250313e-16,
        0.0,
        0.0,
        0.0,
        0.0,
        1.0
      ],
      "name": "Sketchfab_model"
    },
    {
      "children": [
        2
      ],
      "name": "root"
    },
    {
      "children": [
        3
      ],
      "matrix": [
        1.0,
        0.0,
        0.0,
        0.0,
        0.0,
        2.220446049250313e-16,
        1.0,
        0.0,
        0.0,
        -1.0,
        2.220446049250313e-16,
        0.0,
        0.0,
        0.0,
        0.0,
        1.0
      ],
      "name": "GLTF_SceneRootNode"
    },
    {
      "children": [
        4
      ],
      "matrix": [
        0.10733040422201157,
        0.0,
        0.0,
        0.0,
        0.0,
        0.10733040422201157,
        0.0,
        0.0,
        0.0,
        0.0,
        0.10733040422201157,
        0.0,
        0.0,
        0.0,
        0.0,
        1.0
      ],
      "name": "Armature_32"
    },
    {
      "children": [
        5,
        7,
        9,
        11,
        6,
        8,
        10
      ],
      "name": "GLTF_created_0"
    },
    {
      "children": [
        12
      ],
      "name": "GLTF_created_0_rootJoint"
    },
    {
      "name": "Animal_29"
    },
    {
      "mesh": 0,
      "name": "Object_7",
      "skin": 0
    },
    {
      "name": "Eye_30"
    },
    {
      "mesh": 1,
      "name": "Object_9",
      "skin": 0
    },
    {
      "name": "Teeth_31"
    },
    {
      "mesh": 2,
      "name": "Object_11",
      "skin": 0
    },
    {
      "children": [
        13,
        26
      ],
      "name": "Root_28",
      "rotation": [
        0.0009697189088910818,
        1.1920921849650767e-07,
        1.1560070262151001e-10,
        0.9999995231628418
      ],
      "scale": [
        1.0,
        1.0000001192092896,
        1.0000001192092896
      ],
      "translation": [
        -2.9939658011058007e-16,
        -1.0899205207824707,
        -1.0237584114074707
      ]
    },
    {
      "children": [
        14,
        23
      ],
      "name": "Torso_15",
      "rotation": [
        0.6817350387573242,
        8.546884600946214e-06,
        8.126885404635686e-06,
        0.7315992116928101
      ],
      "translation": [
        -8.715343113863128e-08,
        1.1966471672058105,
        0.3655490577220917
      ]
    },
    {
      "children": [
        15
      ],
      "name": "UpperTorso_11",
      "rotation": [
        0.014743012376129627,
        -3.575141533929127e-07,
        3.4271320714651665e-07,
        0.9998913407325745
      ],
      "translation": [
        8.804306025553266e-13,
        0.9954797625541687,
        -1.862645149230957e-09
      ]
    },
    {
      "children": [
        16,
        19,
        21
      ],
      "name": "Neck_10",
      "rotation": [
        0.034693315625190735,
        -2.382944330747705e-07,
        7.85797283242573e-07,
        0.9993979930877686
      ],
      "translation": [
        2.7779346748260658e-14,
        1.2598665952682495,
        0.0
      ]
    },
    {
      "children": [
        17,
        18
      ],
      "name": "AnimalHead_5",
      "rotation": [
        -0.04586127772927284,
        3.57202225131914e-07,
        -1.0442134907862055e-06,
        0.99894779920578
      ],
      "scale": [
        1.0,
        0.9999999403953552,
        0.9999999403953552
      ],
      "translation": [
        1.8119549914305533e-13,
        1.483879804611206,
        1.3911074070449558e-08
      ]
    },
    {
      "name": "Jaw_3",
      "rotation": [
        0.09491024911403656,
        1.1870827876236945e-07,
        2.2062627067498397e-06,
        0.9954858422279358
      ],
      "translation": [
        -6.09693915976095e-06,
        1.1109315156936646,
        0.26363405585289
      ]
    },
    {
      "name": "UpperJaw_4",
      "rotation": [
        -0.004250688478350639,
        9.537101277601323e-07,
        -1.023575251224429e-07,
        0.9999909996986389
      ],
      "translation": [
        1.2019604582746979e-05,
        1.1690512895584106,
        -0.5197321772575378
      ]
    },
    {
      "children": [
        20
      ],
      "name": "Pectoral_L_7",
      "rotation": [
        0.936266303062439,
        0.060841627418994904,
        -0.019854702055454254,
        0.3454120457172394
      ],
      "scale": [
        1.0,
        0.9999999403953552,
        1.0000001192092896
      ],
      "translation": [
        0.7800992727279663,
        1.7445321083068848,
        0.638078510761261
      ]
    },
    {
      "name": "Pectoral_L.001_6",
      "rotation": [
        0.04180864617228508,
        -1.3763917117159963e-08,
        0.006851427257061005,
        0.9991021752357483
      ],
      "scale": [
        0.9999999403953552,
        0.9999998211860657,
        0.9999999403953552
      ],
      "translation": [
        -3.888494148895916e-08,
        0.6202750205993652,
        -5.057696128574207e-08
      ]
    },
    {
      "children": [
        22
      ],
      "name": "Pectoral_R_9",
      "rotation": [
        0.9362658262252808,
        -0.06084934249520302,
        0.019875675439834595,
        0.3454107642173767
      ],
      "scale": [
        0.9999999403953552,
        0.9999998807907104,
        0.9999999403953552
      ],
      "translation": [
        -0.780128002166748,
        1.7445321083068848,
        0.6380435228347778
      ]
    },
    {
      "name": "Pectoral_R.001_8",
      "rotation": [
        0.041808683425188065,
        -1.925491943666202e-08,
        -0.006851415615528822,
        0.9991021752357483
      ],
      "translation": [
        1.30835189793288e-07,
        0.6202750205993652,
        1.0294823482581705e-07
      ]
    },
    {
      "children": [
        24
      ],
      "name": "Dorsal_14",
      "rotation": [
        -0.7955243587493896,
        -2.8889874670312565e-07,
        -1.8397740859654732e-05,
        0.6059216260910034
      ],
      "scale": [
        1.0,
        0.9999998807907104,
        0.9999998807907104
      ],
      "translation": [
        3.157978426315822e-05,
        -0.04958175867795944,
        -1.337936282157898
      ]
    },
    {
      "children": [
        25
      ],
      "name": "Dorsal.002_13",
      "rotation": [
        -0.3140791058540344,
        2.8739133468846934e-12,
        -7.113815172488103e-06,
        0.9493967890739441
      ],
      "translation": [
        2.1628380510174683e-13,
        0.3810966908931732,
        2.9802322387695313e-08
      ]
    },
    {
      "name": "Dorsal.001_12",
      "rotation": [
        -0.12368655204772949,
        -7.876452311553206e-13,
        -2.801472419378115e-06,
        0.9923214316368103
      ],
      "scale": [
        1.0,
        0.9999998211860657,
        0.9999998807907104
      ],
      "translation": [
        -5.392838085815921e-12,
        0.4193761646747589,
        1.1556186763073129e-07
      ]
    },
    {
      "children": [
        27
      ],
      "name": "LowerTorso_27",
      "rotation": [
        -0.6654310822486877,
        8.364579116459936e-06,
        -7.615252343384782e-06,
        0.7464593052864075
      ],
      "scale": [
        1.0,
        0.9999998807907104,
        0.9999999403953552
      ],
      "translation": [
        -7.637442678287698e-08,
        1.1779077053070068,
        0.3203381597995758
      ]
    },
    {
      "children": [
        28
      ],
      "name": "Tail1_26",
      "rotation": [
        -0.021010126918554306,
        2.245366653025327e-12,
        -4.758744012178795e-07,
        0.9997792840003967
      ],
      "scale": [
        1.0,
        1.0000001192092896,
        1.0
      ],
      "translation": [
        7.881613113894237e-13,
        0.5095197558403015,
        -1.5832483768463135e-08
      ]
    },
    {
      "children": [
        29
      ],
      "name": "Tail2_25",
      "rotation": [
        -0.12395425140857697,
        -1.8331265325133295e-12,
        -2.807534428939107e-06,
        0.9922879338264465
      ],
      "scale": [
        1.0,
        1.0,
        0.9999999403953552
      ],
      "translation": [
        -7.884784405248757e-13,
        1.120512843132019,
        3.725290298461914e-09
      ]
    },
    {
      "children": [
        30
      ],
      "name": "Tail3_24",
      "rotation": [
        -0.023957276716828346,
        4.83307729774729e-13,
        -5.426261395768961e-07,
        0.9997130036354065
      ],
      "translation": [
        -2.039033655462652e-12,
        0.8649614453315735,
        -3.725290298461914e-08
      ]
    },
    {
      "children": [
        31
      ],
      "name": "Tail4_23",
      "rotation": [
        -0.0011346497340127826,
        1.5063516840135849e-12,
        -2.5699822714386755e-08,
        0.9999993443489075
      ],
      "translation": [
        -7.762934175689629e-13,
        0.8154699206352234,
        -2.2351741790771484e-08
      ]
    },
    {
      "children": [
        32,
        35
      ],
      "name": "TailTip_22",
      "rotation": [
        -0.012445509433746338,
        -2.2740240680080293e-12,
        -2.81887707842543e-07,
        0.9999225735664368
      ],
      "scale": [
        1.0,
        1.0,
        1.0000001192092896
      ],
      "translation": [
        5.086938682785647e-12,
        0.8027576804161072,
        -5.960464477539063e-08
      ]
    },
    {
      "children": [
        33
      ],
      "name": "Fluke_L_18",
      "rotation": [
        0.03031093440949917,
        0.026615062728524208,
        -0.5454810261726379,
        0.8371519446372986
      ],
      "translation": [
        0.2328210324048996,
        0.6415974497795105,
        -0.05460890382528305
      ]
    },
    {
      "children": [
        34
      ],
      "name": "Fluke_L.001_17",
      "rotation": [
        -0.060749683529138565,
        0.018518881872296333,
        0.04949990287423134,
        0.996752917766571
      ],
      "scale": [
        1.0,
        0.9999999403953552,
        1.0
      ],
      "translation": [
        -2.0493229158091708e-07,
        0.9467194080352783,
        1.8344022123528703e-07
      ]
    },
    {
      "name": "Fluke_L.002_16",
      "rotation": [
        -0.19910123944282532,
        0.05532066524028778,
        0.14538495242595673,
        0.9675543904304504
      ],
      "scale": [
        1.0000001192092896,
        1.0,
        1.0000001192092896
      ],
      "translation": [
        4.7502371103291807e-07,
        0.6536360383033752,
        -5.743698352489446e-07
      ]
    },
    {
      "children": [
        36
      ],
      "name": "Fluke_R_21",
      "rotation": [
        0.030298583209514618,
        -0.026634039357304573,
        0.5454816818237305,
        0.8371513485908508
      ],
      "scale": [
        1.0,
        0.9999998211860657,
        1.0
      ],
      "translation": [
        -0.23281878232955933,
        0.6415975689888,
        -0.054619450122117996
      ]
    },
    {
      "children": [
        37
      ],
      "name": "Fluke_R.001_20",
      "rotation": [
        -0.06074969097971916,
        -0.018518880009651184,
        -0.049499914050102234,
        0.996752917766571
      ],
      "scale": [
        1.0000001192092896,
        1.0,
        1.0
      ],
      "translation": [
        3.092404199378507e-07,
        0.9467195272445679,
        5.3986376258308155e-08
      ]
    },
    {
      "name": "Fluke_R.002_19",
      "rotation": [
        -0.1991012692451477,
        -0.055320702493190765,
        -0.14538495242595673,
        0.9675543904304504
      ],
      "scale": [
        1.0000001192092896,
        1.0,
        1.0000001192092896
      ],
      "translation": [
        6.955427238608536e-07,
        0.6536357402801514,
        1.9248312810304924e-07
      ]
    }
  ],
  "samplers": [
    {
      "magFilter": 9729,
      "minFilter": 9987,
      "wrapS": 10497,
      "wrapT": 10497
    }
  ],
  "scene": 0,
  "scenes": [
    {
      "name": "Sketchfab_Scene",
      "nodes": [
        0
      ]
    }
  ],
  "skins": [
    {
      "inverseBindMatrices": 14,
      "joints": [
        5,
        12,
        13,
        14,
        15,
        16,
        17,
        18,
        19,
        20,
        21,
        22,
        23,
        24,
        25,
        26,
        27,
        28,
        29,
        30,
        31,
        32,
        33,
        34,
        35,
        36,
        37
      ],
      "skeleton": 5
    }
  ],
  "textures": [
    {
      "sampler": 0,
      "source": 0
    },
    {
      "sampler": 0,
      "source": 1
    },
    {
      "sampler": 0,
      "source": 2
    },
    {
      "sampler": 0,
      "source": 3
    }
  ]
}
