{
  "accessors": [
    {
      "bufferView": 2,
      "componentType": 5126,
      "count": 65532,
      "max": [
        1.8718470335006714,
        2.297468900680542,
        2.3190090656280518
      ],
      "min": [
        -2.6380128860473633,
        -10.677324295043945,
        -9.345475196838379
      ],
      "type": "VEC3"
    },
    {
      "bufferView": 2,
      "byteOffset": 786384,
      "componentType": 5126,
      "count": 65532,
      "max": [
        0.9999719858169556,
        0.9999185800552368,
        0.9999777674674988
      ],
      "min": [
        -0.9999978542327881,
        -1.0,
        -0.9999607801437378
      ],
      "type": "VEC3"
    },
    {
      "bufferView": 3,
      "componentType": 5126,
      "count": 65532,
      "max": [
        0.9998205900192261,
        0.9997266530990601,
        0.9999875426292419,
        1.0
      ],
      "min": [
        -0.9999454617500305,
        -0.9999856948852539,
        -0.9998971223831177,
        1.0
      ],
      "type": "VEC4"
    },
    {
      "bufferView": 1,
      "componentType": 5126,
      "count": 65532,
      "max": [
        0.9970870018005371,
        0.9980469942092896
      ],
      "min": [
        0.0019529999699443579,
        0.0019529999699443579
      ],
      "type": "VEC2"
    },
    {
      "bufferView": 0,
      "componentType": 5125,
      "count": 366480,
      "type": "SCALAR"
    },
    {
      "bufferView": 2,
      "byteOffset": 1572768,
      "componentType": 5126,
      "count": 4313,
      "max": [
        1.8736250400543213,
        2.274832010269165,
        2.3190090656280518
      ],
      "min": [
        -1.900354027748108,
        -7.223434925079346,
        -6.59066104888916
      ],
      "type": "VEC3"
    },
    {
      "bufferView": 2,
      "byteOffset": 1624524,
      "componentType": 5126,
      "count": 4313,
      "max": [
        0.9999707341194153,
        0.9941537380218506,
        0.9990373849868774
      ],
      "min": [
        -0.9980332255363464,
        -0.9999085068702698,
        -0.9999480247497559
      ],
      "type": "VEC3"
    },
    {
      "bufferView": 3,
      "byteOffset": 1048512,
      "componentType": 5126,
      "count": 4313,
      "max": [
        0.994086742401123,
        0.8383131623268127,
        0.9777466058731079,
        1.0
      ],
      "min": [
        -0.9908015131950378,
        -0.9993919730186462,
        -0.997273862361908,
        1.0
      ],
      "type": "VEC4"
    },
    {
      "bufferView": 1,
      "byteOffset": 524256,
      "componentType": 5126,
      "count": 4313,
      "max": [
        0.9830330014228821,
        0.972087025642395
      ],
      "min": [
        0.0019529999699443579,
        0.0019529999699443579
      ],
      "type": "VEC2"
    },
    {
      "bufferView": 0,
      "byteOffset": 1465920,
      "componentType": 5125,
      "count": 16992,
      "type": "SCALAR"
    }
  ],
  "asset": {
    "extras": {
      "author": "Alexa Kruckenberg (https://sketchfab.com/AlexaKruckenberg)",
      "license": "CC-BY-4.0 (http://creativecommons.org/licenses/by/4.0/)",
      "source": "https://sketchfab.com/3d-models/zebra-063ceb75b220463fa2dde8df4154ba2e",
      "title": "Zebra"
    },
    "generator": "Sketchfab-12.68.0",
    "version": "2.0"
  },
  "bufferViews": [
    {
      "buffer": 0,
      "byteLength": 1533888,
      "name": "floatBufferViews",
      "target": 34963
    },
    {
      "buffer": 0,
      "byteLength": 558760,
      "byteOffset": 1533888,
      "byteStride": 8,
      "name": "floatBufferViews",
      "target": 34962
    },
    {
      "buffer": 0,
      "byteLength": 1676280,
      "byteOffset": 2092648,
      "byteStride": 12,
      "name": "floatBufferViews",
      "target": 34962
    },
    {
      "buffer": 0,
      "byteLength": 1117520,
      "byteOffset": 3768928,
      "byteStride": 16,
      "name": "floatBufferViews",
      "target": 34962
    }
  ],
  "buffers": [
    {
      "byteLength": 4886448,
      "uri": "scene.bin"
    }
  ],
  "images": [
    {
      "uri": "textures/RyanZebra_defaultMat1_baseColor.jpeg"
    },
    {
      "uri": "textures/RyanZebra_defaultMat1_metallicRoughness.png"
    },
    {
      "uri": "textures/RyanZebra_defaultMat1_normal.png"
    }
  ],
  "materials": [
    {
      "name": "RyanZebra_defaultMat1",
      "normalTexture": {
        "index": 2
      },
      "pbrMetallicRoughness": {
        "baseColorTexture": {
          "index": 0
        },
        "metallicRoughnessTexture": {
          "index": 1
        }
      }
    }
  ],
  "meshes": [
    {
      "name": "defaultMaterial",
      "primitives": [
        {
          "attributes": {
            "NORMAL": 1,
            "POSITION": 0,
            "TANGENT": 2,
            "TEXCOORD_0": 3
          },
          "indices": 4,
          "material": 0,
          "mode": 4
        }
      ]
    },
    {
      "name": "defaultMaterial",
      "primitives": [
        {
          "attributes": {
            "NORMAL": 6,
            "POSITION": 5,
            "TANGENT": 7,
            "TEXCOORD_0": 8
          },
          "indices": 9,
          "material": 0,
          "mode": 4
        }
      ]
    }
  ],
  "nodes": [
    {
      "children": [
        1
      ],
      "matrix": [
        1.0,
        0.0,
        0.0,
        0.0,
        0.0,
        2.220446049250313e-16,
        -1.0,
        0.0,
        0.0,
        1.0,
        2.220446049250313e-16,
        0.0,
        0.0,
        0.0,
        0.0,
        1.0
      ],
      "name": "Sketchfab_model"
    },
    {
      "children": [
        2
      ],
      "matrix": [
        1.0,
        0.0,
        0.0,
        0.0,
        0.0,
        -4.371139006309477e-08,
        0.999999999999999,
        0.0,
        0.0,
        -0.999999999999999,
        -4.371139006309477e-08,
        0.0,
        0.0,
        0.0,
        0.0,
        1.0
      ],
      "name": "Collada visual scene group"
    },
    {
      "children": [
        3,
        4
      ],
      "name": "RyanZebra:Group44309"
    },
    {
      "mesh": 0,
      "name": "defaultMaterial"
    },
    {
      "mesh": 1,
      "name": "defaultMaterial"
    }
  ],
  "samplers": [
    {
      "magFilter": 9729,
      "minFilter": 9987,
      "wrapS": 10497,
      "wrapT": 10497
    }
  ],
  "scene": 0,
  "scenes": [
    {
      "name": "Sketchfab_Scene",
      "nodes": [
        0
      ]
    }
  ],
  "textures": [
    {
      "sampler": 0,
      "source": 0
    },
    {
      "sampler": 0,
      "source": 1
    },
    {
      "sampler": 0,
      "source": 2
    }
  ]
}
