{
  "accessors": [
    {
      "bufferView": 2,
      "componentType": 5126,
      "count": 5054,
      "max": [
        0.9373260140419006,
        0.5982388257980347,
        0.79532790184021
      ],
      "min": [
        -0.12396221607923508,
        -0.3395842909812927,
        -0.30042338371276855
      ],
      "type": "VEC3"
    },
    {
      "bufferView": 2,
      "byteOffset": 60648,
      "componentType": 5126,
      "count": 5054,
      "max": [
        0.998012125492096,
        0.9998074173927307,
        0.9895100593566895
      ],
      "min": [
        -0.8598202466964722,
        -0.9869128465652466,
        -0.9999202489852905
      ],
      "type": "VEC3"
    },
    {
      "bufferView": 1,
      "componentType": 5126,
      "count": 5054,
      "max": [
        0.9404795169830322,
        0.9998182058334351
      ],
      "min": [
        0.00045987963676452637,
        0.00018152594566345215
      ],
      "type": "VEC2"
    },
    {
      "bufferView": 0,
      "componentType": 5125,
      "count": 28752,
      "type": "SCALAR"
    },
    {
      "bufferView": 2,
      "byteOffset": 121296,
      "componentType": 5126,
      "count": 6627,
      "max": [
        0.9504551291465759,
        0.4835103750228882,
        0.8749339580535889
      ],
      "min": [
        -0.34157994389533997,
        -0.4516885578632355,
        0.07241512089967728
      ],
      "type": "VEC3"
    },
    {
      "bufferView": 2,
      "byteOffset": 200820,
      "componentType": 5126,
      "count": 6627,
      "max": [
        0.9998183250427246,
        0.9978222846984863,
        0.9993277788162231
      ],
      "min": [
        -0.9956425428390503,
        -0.9997251033782959,
        -0.9994041323661804
      ],
      "type": "VEC3"
    },
    {
      "bufferView": 1,
      "byteOffset": 40432,
      "componentType": 5126,
      "count": 6627,
      "max": [
        0.9346234798431396,
        0.9995245933532715
      ],
      "min": [
        0.00037151575088500977,
        0.00024130940437316895
      ],
      "type": "VEC2"
    },
    {
      "bufferView": 0,
      "byteOffset": 115008,
      "componentType": 5125,
      "count": 36723,
      "type": "SCALAR"
    },
    {
      "bufferView": 2,
      "byteOffset": 280344,
      "componentType": 5126,
      "count": 3102,
      "max": [
        0.9354322552680969,
        0.6508188247680664,
        0.7630202770233154
      ],
      "min": [
        -1.0072623491287231,
        -0.16003383696079254,
        -0.27583813667297363
      ],
      "type": "VEC3"
    },
    {
      "bufferView": 2,
      "byteOffset": 317568,
      "componentType": 5126,
      "count": 3102,
      "max": [
        0.9979700446128845,
        0.9991834759712219,
        0.9749911427497864
      ],
      "min": [
        -0.9999008774757385,
        -0.9978724122047424,
        -0.9882448315620422
      ],
      "type": "VEC3"
    },
    {
      "bufferView": 1,
      "byteOffset": 93448,
      "componentType": 5126,
      "count": 3102,
      "max": [
        0.999706506729126,
        0.9545808434486389
      ],
      "min": [
        0.00029402971267700195,
        0.000504910945892334
      ],
      "type": "VEC2"
    },
    {
      "bufferView": 0,
      "byteOffset": 261900,
      "componentType": 5125,
      "count": 17541,
      "type": "SCALAR"
    },
    {
      "bufferView": 2,
      "byteOffset": 354792,
      "componentType": 5126,
      "count": 3978,
      "max": [
        0.6122809052467346,
        0.5008764266967773,
        0.8068091869354248
      ],
      "min": [
        -1.0042767524719238,
        -0.41931942105293274,
        -0.3180549144744873
      ],
      "type": "VEC3"
    },
    {
      "bufferView": 2,
      "byteOffset": 402528,
      "componentType": 5126,
      "count": 3978,
      "max": [
        0.996830403804779,
        0.9959595203399658,
        0.9894279837608337
      ],
      "min": [
        -0.9986149072647095,
        -0.9996769428253174,
        -0.9999030232429504
      ],
      "type": "VEC3"
    },
    {
      "bufferView": 1,
      "byteOffset": 118264,
      "componentType": 5126,
      "count": 3978,
      "max": [
        0.9997014999389648,
        0.9701563119888306
      ],
      "min": [
        0.00029861927032470703,
        0.00046646595001220703
      ],
      "type": "VEC2"
    },
    {
      "bufferView": 0,
      "byteOffset": 332064,
      "componentType": 5125,
      "count": 22737,
      "type": "SCALAR"
    }
  ],
  "asset": {
    "extras": {
      "author": "Société Géologique de France (https://sketchfab.com/sgfrance)",
      "license": "CC-BY-NC-SA-4.0 (http://creativecommons.org/licenses/by-nc-sa/4.0/)",
      "source": "https://sketchfab.com/3d-models/mineral-quartz-synthetique-c7acf4bf7a174a14afb3745050271822",
      "title": "Mineral - Quartz synthetique"
    },
    "generator": "Sketchfab-15.53.0",
    "version": "2.0"
  },
  "bufferViews": [
    {
      "buffer": 0,
      "byteLength": 423012,
      "name": "floatBufferViews",
      "target": 34963
    },
    {
      "buffer": 0,
      "byteLength": 150088,
      "byteOffset": 423012,
      "byteStride": 8,
      "name": "floatBufferViews",
      "target": 34962
    },
    {
      "buffer": 0,
      "byteLength": 450264,
      "byteOffset": 573100,
      "byteStride": 12,
      "name": "floatBufferViews",
      "target": 34962
    }
  ],
  "buffers": [
    {
      "byteLength": 1023364,
      "uri": "scene.bin"
    }
  ],
  "extensionsUsed": [
    "KHR_materials_unlit"
  ],
  "images": [
    {
      "uri": "textures/material3_baseColor.jpeg"
    },
    {
      "uri": "textures/material1_baseColor.jpeg"
    },
    {
      "uri": "textures/material2_baseColor.jpeg"
    },
    {
      "uri": "textures/material0_baseColor.jpeg"
    }
  ],
  "materials": [
    {
      "doubleSided": true,
      "extensions": {
        "KHR_materials_unlit": {}
      },
      "name": "material3",
      "pbrMetallicRoughness": {
        "baseColorTexture": {
          "index": 0
        },
        "metallicFactor": 0.0
      }
    },
    {
      "doubleSided": true,
      "extensions": {
        "KHR_materials_unlit": {}
      },
      "name": "material1",
      "pbrMetallicRoughness": {
        "baseColorTexture": {
          "index": 1
        },
        "metallicFactor": 0.0
      }
    },
    {
      "doubleSided": true,
      "extensions": {
        "KHR_materials_unlit": {}
      },
      "name": "material2",
      "pbrMetallicRoughness": {
        "baseColorTexture": {
          "index": 2
        },
        "metallicFactor": 0.0
      }
    },
    {
      "doubleSided": true,
      "extensions": {
        "KHR_materials_unlit": {}
      },
      "name": "material0",
      "pbrMetallicRoughness": {
        "baseColorTexture": {
          "index": 3
        },
        "metallicFactor": 0.0
      }
    }
  ],
  "meshes": [
    {
      "name": "Model_material3_0",
      "primitives": [
        {
          "attributes": {
            "NORMAL": 1,
            "POSITION": 0,
            "TEXCOORD_0": 2
          },
          "indices": 3,
          "material": 0,
          "mode": 4
        }
      ]
    },
    {
      "name": "Model_material1_0",
      "primitives": [
        {
          "attributes": {
            "NORMAL": 5,
            "POSITION": 4,
            "TEXCOORD_0": 6
          },
          "indices": 7,
          "material": 1,
          "mode": 4
        }
      ]
    },
    {
      "name": "Model_material2_0",
      "primitives": [
        {
          "attributes": {
            "NORMAL": 9,
            "POSITION": 8,
            "TEXCOORD_0": 10
          },
          "indices": 11,
          "material": 2,
          "mode": 4
        }
      ]
    },
    {
      "name": "Model_material0_0",
      "primitives": [
        {
          "attributes": {
            "NORMAL": 13,
            "POSITION": 12,
            "TEXCOORD_0": 14
          },
          "indices": 15,
          "material": 3,
          "mode": 4
        }
      ]
    }
  ],
  "nodes": [
    {
      "children": [
        1
      ],
      "matrix": [
        0.27679261565208435,
        -0.9340577721595764,
        0.22565874457359295,
        0.0,
        -1.3877787807814457e-17,
        -0.23483377695083596,
        -0.9720355272293091,
        0.0,
        0.9609296917915344,
        0.26905226707458496,
        -0.06500025838613505,
        0.0,
        0.0,
        0.0,
        0.0,
        1.0
      ],
      "name": "Sketchfab_model"
    },
    {
      "children": [
        2
      ],
      "matrix": [
        1.0,
        0.0,
        0.0,
        0.0,
        0.0,
        -1.0,
        0.0,
        0.0,
        0.0,
        0.0,
        -1.0,
        0.0,
        0.0,
        0.0,
        0.0,
        1.0
      ],
      "name": "model.fbx"
    },
    {
      "children": [
        3
      ],
      "name": "RootNode"
    },
    {
      "children": [
        4,
        5,
        6,
        7
      ],
      "name": "Model"
    },
    {
      "mesh": 0,
      "name": "Model_material3_0"
    },
    {
      "mesh": 1,
      "name": "Model_material1_0"
    },
    {
      "mesh": 2,
      "name": "Model_material2_0"
    },
    {
      "mesh": 3,
      "name": "Model_material0_0"
    }
  ],
  "samplers": [
    {
      "magFilter": 9729,
      "minFilter": 9987,
      "wrapS": 10497,
      "wrapT": 10497
    }
  ],
  "scene": 0,
  "scenes": [
    {
      "name": "Sketchfab_Scene",
      "nodes": [
        0
      ]
    }
  ],
  "textures": [
    {
      "sampler": 0,
      "source": 0
    },
    {
      "sampler": 0,
      "source": 1
    },
    {
      "sampler": 0,
      "source": 2
    },
    {
      "sampler": 0,
      "source": 3
    }
  ]
}
