{
  "accessors": [
    {
      "bufferView": 2,
      "componentType": 5126,
      "count": 44405,
      "max": [
        0.26768234372138977,
        0.6298468112945557,
        0.2662142217159271
      ],
      "min": [
        -0.3561522960662842,
        0.008270233869552612,
        -0.3576132655143738
      ],
      "type": "VEC3"
    },
    {
      "bufferView": 2,
      "byteOffset": 532860,
      "componentType": 5126,
      "count": 44405,
      "max": [
        0.9999842643737793,
        0.9999998807907104,
        0.9999985098838806
      ],
      "min": [
        -0.9999887943267822,
        -0.9999899864196777,
        -0.9999837279319763
      ],
      "type": "VEC3"
    },
    {
      "bufferView": 1,
      "componentType": 5126,
      "count": 44405,
      "max": [
        0.9955635666847229,
        0.9999759793281555
      ],
      "min": [
        0.00013376149581745267,
        4.500150680541992e-05
      ],
      "type": "VEC2"
    },
    {
      "bufferView": 1,
      "byteOffset": 355240,
      "componentType": 5126,
      "count": 44405,
      "max": [
        0.9955635666847229,
        0.9999759793281555
      ],
      "min": [
        0.00013376149581745267,
        4.500150680541992e-05
      ],
      "type": "VEC2"
    },
    {
      "bufferView": 1,
      "byteOffset": 710480,
      "componentType": 5126,
      "count": 44405,
      "max": [
        0.9955635666847229,
        0.9999759793281555
      ],
      "min": [
        0.00013376149581745267,
        4.500150680541992e-05
      ],
      "type": "VEC2"
    },
    {
      "bufferView": 1,
      "byteOffset": 1065720,
      "componentType": 5126,
      "count": 44405,
      "max": [
        0.9955635666847229,
        0.9999759793281555
      ],
      "min": [
        0.00013376149581745267,
        4.500150680541992e-05
      ],
      "type": "VEC2"
    },
    {
      "bufferView": 1,
      "byteOffset": 1420960,
      "componentType": 5126,
      "count": 44405,
      "max": [
        0.9955635666847229,
        0.9999759793281555
      ],
      "min": [
        0.00013376149581745267,
        4.500150680541992e-05
      ],
      "type": "VEC2"
    },
    {
      "bufferView": 0,
      "componentType": 5125,
      "count": 230031,
      "type": "SCALAR"
    }
  ],
  "asset": {
    "extras": {
      "author": "Andrei Alexandrescu (https://sketchfab.com/Andrei_Alexandrescu)",
      "license": "CC-BY-NC-SA-4.0 (http://creativecommons.org/licenses/by-nc-sa/4.0/)",
      "source": "https://sketchfab.com/3d-models/stuffed-baby-giraffe-8fb84d65e39f4dadbd8de3a84f00e6e5",
      "title": "Stuffed Baby Giraffe"
    },
    "generator": "Sketchfab-16.12.0",
    "version": "2.0"
  },
  "bufferViews": [
    {
      "buffer": 0,
      "byteLength": 920124,
      "name": "floatBufferViews",
      "target": 34963
    },
    {
      "buffer": 0,
      "byteLength": 1776200,
      "byteOffset": 920124,
      "byteStride": 8,
      "name": "floatBufferViews",
      "target": 34962
    },
    {
      "buffer": 0,
      "byteLength": 1065720,
      "byteOffset": 2696324,
      "byteStride": 12,
      "name": "floatBufferViews",
      "target": 34962
    }
  ],
  "buffers": [
    {
      "byteLength": 3762044,
      "uri": "scene.bin"
    }
  ],
  "extensionsUsed": [
    "KHR_materials_unlit"
  ],
  "images": [
    {
      "uri": "textures/material_0_baseColor.jpeg"
    }
  ],
  "materials": [
    {
      "extensions": {
        "KHR_materials_unlit": {}
      },
      "name": "material_0",
      "pbrMetallicRoughness": {
        "baseColorTexture": {
          "index": 0
        },
        "metallicFactor": 0.0
      }
    }
  ],
  "meshes": [
    {
      "name": "Object_0",
      "primitives": [
        {
          "attributes": {
            "NORMAL": 1,
            "POSITION": 0,
            "TEXCOORD_0": 2,
            "TEXCOORD_1": 3,
            "TEXCOORD_2": 4,
            "TEXCOORD_3": 5,
            "TEXCOORD_4": 6
          },
          "indices": 7,
          "material": 0,
          "mode": 4
        }
      ]
    }
  ],
  "nodes": [
    {
      "children": [
        1
      ],
      "matrix": [
        1.0,
        0.0,
        0.0,
        0.0,
        0.0,
        2.220446049250313e-16,
        -1.0,
        0.0,
        0.0,
        1.0,
        2.220446049250313e-16,
        0.0,
        0.0,
        0.0,
        0.0,
        1.0
      ],
      "name": "Sketchfab_model"
    },
    {
      "children": [
        2
      ],
      "name": "root"
    },
    {
      "children": [
        3
      ],
      "matrix": [
        1.0,
        0.0,
        0.0,
        0.0,
        0.0,
        2.220446049250313e-16,
        1.0,
        0.0,
        0.0,
        -1.0,
        2.220446049250313e-16,
        0.0,
        0.0,
        0.0,
        0.0,
        1.0
      ],
      "name": "GLTF_SceneRootNode"
    },
    {
      "children": [
        4
      ],
      "name": "_0"
    },
    {
      "mesh": 0,
      "name": "Object_4"
    }
  ],
  "samplers": [
    {
      "magFilter": 9729,
      "minFilter": 9987,
      "wrapS": 10497,
      "wrapT": 10497
    }
  ],
  "scene": 0,
  "scenes": [
    {
      "name": "Sketchfab_Scene",
      "nodes": [
        0
      ]
    }
  ],
  "textures": [
    {
      "sampler": 0,
      "source": 0
    }
  ]
}
