{
  "accessors": [
    {
      "bufferView": 2,
      "componentType": 5126,
      "count": 65532,
      "max": [
        0.8057810068130493,
        0.7438549995422363,
        0.8217949867248535
      ],
      "min": [
        -0.8142709732055664,
        -0.7358430027961731,
        -0.9804400205612183
      ],
      "type": "VEC3"
    },
    {
      "bufferView": 2,
      "byteOffset": 786384,
      "componentType": 5126,
      "count": 65532,
      "max": [
        0.9994064569473267,
        0.9999234676361084,
        0.9999901056289673
      ],
      "min": [
        -0.9999364614486694,
        -0.9999759793281555,
        -0.9999242424964905
      ],
      "type": "VEC3"
    },
    {
      "bufferView": 3,
      "componentType": 5126,
      "count": 65532,
      "max": [
        0.9999665021896362,
        0.9999759793281555,
        0.9999927282333374,
        1.0
      ],
      "min": [
        -0.9999974370002747,
        -0.9999934434890747,
        -0.9999998211860657,
        1.0
      ],
      "type": "VEC4"
    },
    {
      "bufferView": 1,
      "componentType": 5126,
      "count": 65532,
      "max": [
        0.28213199973106384,
        0.2061229944229126
      ],
      "min": [
        0.00390625,
        0.00390625
      ],
      "type": "VEC2"
    },
    {
      "bufferView": 0,
      "componentType": 5125,
      "count": 98298,
      "type": "SCALAR"
    },
    {
      "bufferView": 2,
      "byteOffset": 1572768,
      "componentType": 5126,
      "count": 8964,
      "max": [
        0.7990580201148987,
        -0.2810260057449341,
        0.20916299521923065
      ],
      "min": [
        0.28195399045944214,
        -0.7519829869270325,
        -0.9028030037879944
      ],
      "type": "VEC3"
    },
    {
      "bufferView": 2,
      "byteOffset": 1680336,
      "componentType": 5126,
      "count": 8964,
      "max": [
        0.9961868524551392,
        0.9992200136184692,
        0.9998950958251953
      ],
      "min": [
        -0.9980341196060181,
        -0.998470664024353,
        -0.9998089075088501
      ],
      "type": "VEC3"
    },
    {
      "bufferView": 3,
      "byteOffset": 1048512,
      "componentType": 5126,
      "count": 8964,
      "max": [
        0.9999805688858032,
        0.9997486472129822,
        0.99806809425354,
        1.0
      ],
      "min": [
        -0.9994403719902039,
        -0.999714195728302,
        -0.9999202489852905,
        1.0
      ],
      "type": "VEC4"
    },
    {
      "bufferView": 1,
      "byteOffset": 524256,
      "componentType": 5126,
      "count": 8964,
      "max": [
        0.19679799675941467,
        0.16521599888801575
      ],
      "min": [
        0.03683590143918991,
        0.004744070116430521
      ],
      "type": "VEC2"
    },
    {
      "bufferView": 0,
      "byteOffset": 393192,
      "componentType": 5125,
      "count": 13446,
      "type": "SCALAR"
    },
    {
      "bufferView": 2,
      "byteOffset": 1787904,
      "componentType": 5126,
      "count": 56600,
      "max": [
        0.9990540146827698,
        1.0,
        0.9995710253715515
      ],
      "min": [
        -0.9990540146827698,
        -1.0,
        -0.9995710253715515
      ],
      "type": "VEC3"
    },
    {
      "bufferView": 2,
      "byteOffset": 2467104,
      "componentType": 5126,
      "count": 56600,
      "max": [
        0.9999692440032959,
        0.9999871253967285,
        0.9999998807907104
      ],
      "min": [
        -0.9998959898948669,
        -0.9999991059303284,
        -0.9997496604919434
      ],
      "type": "VEC3"
    },
    {
      "bufferView": 3,
      "byteOffset": 1191936,
      "componentType": 5126,
      "count": 56600,
      "max": [
        1.0,
        0.9999997615814209,
        0.7143934965133667,
        -1.0
      ],
      "min": [
        -0.9960135221481323,
        -0.999343991279602,
        -0.7172446250915527,
        -1.0
      ],
      "type": "VEC4"
    },
    {
      "bufferView": 1,
      "byteOffset": 595968,
      "componentType": 5126,
      "count": 56600,
      "max": [
        0.6775609850883484,
        0.9863089919090271
      ],
      "min": [
        0.00390625,
        0.00390625
      ],
      "type": "VEC2"
    },
    {
      "bufferView": 0,
      "byteOffset": 446976,
      "componentType": 5125,
      "count": 84900,
      "type": "SCALAR"
    }
  ],
  "asset": {
    "extras": {
      "author": "macriciox (https://sketchfab.com/macriciox)",
      "license": "CC-BY-4.0 (http://creativecommons.org/licenses/by/4.0/)",
      "source": "https://sketchfab.com/3d-models/baseball-e50d6dbbdfba4957ac5c8063e8eed486",
      "title": "Baseball"
    },
    "generator": "Sketchfab-16.12.0",
    "version": "2.0"
  },
  "bufferViews": [
    {
      "buffer": 0,
      "byteLength": 786576,
      "name": "floatBufferViews",
      "target": 34963
    },
    {
      "buffer": 0,
      "byteLength": 1048768,
      "byteOffset": 786576,
      "byteStride": 8,
      "name": "floatBufferViews",
      "target": 34962
    },
    {
      "buffer": 0,
      "byteLength": 3146304,
      "byteOffset": 1835344,
      "byteStride": 12,
      "name": "floatBufferViews",
      "target": 34962
    },
    {
      "buffer": 0,
      "byteLength": 2097536,
      "byteOffset": 4981648,
      "byteStride": 16,
      "name": "floatBufferViews",
      "target": 34962
    }
  ],
  "buffers": [
    {
      "byteLength": 7079184,
      "uri": "scene.bin"
    }
  ],
  "images": [
    {
      "uri": "textures/Ball_low_baseColor.jpeg"
    },
    {
      "uri": "textures/Ball_low_metallicRoughness.png"
    },
    {
      "uri": "textures/Ball_low_normal.jpeg"
    },
    {
      "uri": "textures/Stitches_low_baseColor.jpeg"
    },
    {
      "uri": "textures/Stitches_low_metallicRoughness.png"
    },
    {
      "uri": "textures/Stitches_low_normal.jpeg"
    }
  ],
  "materials": [
    {
      "doubleSided": true,
      "name": "Ball_low",
      "normalTexture": {
        "index": 2
      },
      "occlusionTexture": {
        "index": 1
      },
      "pbrMetallicRoughness": {
        "baseColorTexture": {
          "index": 0
        },
        "metallicRoughnessTexture": {
          "index": 1
        }
      }
    },
    {
      "doubleSided": true,
      "name": "Stitches_low",
      "normalTexture": {
        "index": 5
      },
      "occlusionTexture": {
        "index": 4
      },
      "pbrMetallicRoughness": {
        "baseColorTexture": {
          "index": 3
        },
        "metallicRoughnessTexture": {
          "index": 4
        }
      }
    }
  ],
  "meshes": [
    {
      "name": "defaultMaterial",
      "primitives": [
        {
          "attributes": {
            "NORMAL": 1,
            "POSITION": 0,
            "TANGENT": 2,
            "TEXCOORD_0": 3
          },
          "indices": 4,
          "material": 1,
          "mode": 4
        }
      ]
    },
    {
      "name": "defaultMaterial",
      "primitives": [
        {
          "attributes": {
            "NORMAL": 6,
            "POSITION": 5,
            "TANGENT": 7,
            "TEXCOORD_0": 8
          },
          "indices": 9,
          "material": 1,
          "mode": 4
        }
      ]
    },
    {
      "name": "defaultMaterial",
      "primitives": [
        {
          "attributes": {
            "NORMAL": 11,
            "POSITION": 10,
            "TANGENT": 12,
            "TEXCOORD_0": 13
          },
          "indices": 14,
          "material": 0,
          "mode": 4
        }
      ]
    }
  ],
  "nodes": [
    {
      "children": [
        1
      ],
      "matrix": [
        1.0,
        0.0,
        0.0,
        0.0,
        0.0,
        2.220446049250313e-16,
        -1.0,
        0.0,
        0.0,
        1.0,
        2.220446049250313e-16,
        0.0,
        0.0,
        0.0,
        0.0,
        1.0
      ],
      "name": "Sketchfab_model"
    },
    {
      "children": [
        2,
        5
      ],
      "matrix": [
        1.0,
        0.0,
        0.0,
        0.0,
        0.0,
        -4.371139006309477e-08,
        0.999999999999999,
        0.0,
        0.0,
        -0.999999999999999,
        -4.371139006309477e-08,
        0.0,
        0.0,
        0.0,
        0.0,
        1.0
      ],
      "name": "Collada visual scene group"
    },
    {
      "children": [
        3,
        4
      ],
      "name": "Stitches_low"
    },
    {
      "mesh": 0,
      "name": "defaultMaterial"
    },
    {
      "mesh": 1,
      "name": "defaultMaterial"
    },
    {
      "children": [
        6
      ],
      "name": "Ball_low"
    },
    {
      "mesh": 2,
      "name": "defaultMaterial"
    }
  ],
  "samplers": [
    {
      "magFilter": 9729,
      "minFilter": 9987,
      "wrapS": 10497,
      "wrapT": 10497
    }
  ],
  "scene": 0,
  "scenes": [
    {
      "name": "Sketchfab_Scene",
      "nodes": [
        0
      ]
    }
  ],
  "textures": [
    {
      "sampler": 0,
      "source": 0
    },
    {
      "sampler": 0,
      "source": 1
    },
    {
      "sampler": 0,
      "source": 2
    },
    {
      "sampler": 0,
      "source": 3
    },
    {
      "sampler": 0,
      "source": 4
    },
    {
      "sampler": 0,
      "source": 5
    }
  ]
}
